<?xml version="1.0" encoding="utf-8"?>
<svg width="296" height="110" viewBox="0 0 296 110" fill="none" stroke="none" version="1.1" xmlns:xlink="http://www.w3.org/1999/xlink" xmlns="http://www.w3.org/2000/svg">
  <g id="SingleElement">
    <path id="Rectangle" d="M270 0C275.524 0 280 4.47644 280 10L280 11C280 16.5236 275.524 21 270 21L10 21C4.47641 21 0 16.5236 0 11L0 10C0 4.47644 4.47641 0 10 0L270 0Z" style="fill:#6F6F6F;mix-blend-mode:normal;" transform="translate(14 3)" />
    <path id="Rectangle" d="M270 0C275.524 0 280 4.47644 280 10L280 11C280 16.5236 275.524 21 270 21L10 21C4.47641 21 0 16.5236 0 11L0 10C0 4.47644 4.47641 0 10 0L270 0Z" style="fill:#E8E8E8;mix-blend-mode:normal;" transform="translate(16 0)" />
    <path id="Oval" d="M0 7.5C0 3.35791 3.35785 0 7.5 0C11.6422 0 15 3.35791 15 7.5C15 11.6421 11.6422 15 7.5 15C3.35785 15 0 11.6421 0 7.5Z" style="fill:#FFFFFF;fill-rule:evenodd;mix-blend-mode:normal;" transform="translate(0 38)" />
    <path id="Oval" d="M0 7.5C0 3.35791 3.35785 0 7.5 0C11.6422 0 15 3.35791 15 7.5C15 11.6421 11.6422 15 7.5 15C3.35785 15 0 11.6421 0 7.5Z" style="fill:#FFFFFF;fill-rule:evenodd;mix-blend-mode:normal;" transform="translate(0 66)" />
    <path id="Oval" d="M0 7.5C0 3.35791 3.35785 0 7.5 0C11.6422 0 15 3.35791 15 7.5C15 11.6421 11.6422 15 7.5 15C3.35785 15 0 11.6421 0 7.5Z" style="fill:#B5E742;fill-rule:evenodd;mix-blend-mode:normal;" transform="translate(0 95)" />
    <path id="Rectangle" d="M258.5 0C260.433 0 262 1.56677 262 3.5L262 3.5C262 5.43323 260.433 7 258.5 7L3.5 7C1.56674 7 0 5.43323 0 3.5L0 3.5C0 1.56677 1.56674 0 3.5 0L258.5 0Z" style="fill:#FFFFFF;mix-blend-mode:normal;" transform="translate(30 42)" />
    <path id="Rectangle" d="M241.5 0C243.433 0 245 1.56677 245 3.5L245 3.5C245 5.43323 243.433 7 241.5 7L3.5 7C1.56674 7 0 5.43323 0 3.5L0 3.5C0 1.56677 1.56674 0 3.5 0L241.5 0Z" style="fill:#FFFFFF;mix-blend-mode:normal;" transform="translate(30 70)" />
    <path id="Rectangle" d="M246.5 0C248.433 0 250 1.56677 250 3.5L250 3.5C250 5.43323 248.433 7 246.5 7L3.5 7C1.56674 7 0 5.43323 0 3.5L0 3.5C0 1.56677 1.56674 0 3.5 0L246.5 0Z" style="fill:#FFFFFF;mix-blend-mode:normal;" transform="translate(30 99)" />
  </g>
</svg>