<?xml version="1.0" encoding="utf-8"?>
<svg width="180" height="100" viewBox="0 0 494.646 277.739" fill="none" stroke="none" version="1.1" xmlns:xlink="http://www.w3.org/1999/xlink" xmlns="http://www.w3.org/2000/svg">
  <g id="SingleElement">
    <path id="leftArm" d="M46 0C51.5236 0 56 4.47638 56.0001 10L56 114C56 119.524 51.5236 124 46 124L10.0001 124C4.47638 124 0 119.524 0 114L0 10C0 4.47638 4.47638 0 10 0L46 0Z" style="fill:#FFD864;mix-blend-mode:normal;" transform="matrix(0.707 -0.707 0.707 0.707 47 41)" />
    <path id="LlittleFinger" d="M0 4.5C0 2.01471 3.35791 0 7.5 0C11.6422 0 15 2.01465 15 4.49994C15 6.98529 11.6421 8.99988 7.5 9C3.35791 8.99994 0 6.98523 0 4.5Z" style="fill:#D2B04A;fill-rule:evenodd;mix-blend-mode:normal;" transform="matrix(0.707 0.707 -0.707 0.707 91.414 15.657)" />
    <path id="LcenterFinger" d="M0 5.99994C0 2.68622 4.47717 0 10 0C15.5229 6.10352e-05 20 2.68634 20 6C20 9.31372 15.5229 12.0001 10 11.9999C4.47717 12 0 9.31378 0 5.99994Z" style="fill:#D2B04A;fill-rule:evenodd;mix-blend-mode:normal;" transform="matrix(0.707 0.707 -0.707 0.707 76 20)" />
    <path id="LLongFinger" d="M0 9.72925C0 4.48248 9.24463 -1.22192 12.0001 0.229431C14.7554 1.68079 15.4446 2.76733 16.5 9.72919C17.5554 16.691 67.0604 64.2296 58.5 64.2296C49.9395 64.2296 0 14.976 0 9.72925Z" style="fill:#D2B04A;fill-rule:evenodd;mix-blend-mode:normal;" transform="translate(53.5 31.27)" />
    <path id="rigthArm" d="M46 0.00012207C51.5237 0 56.0002 4.47644 56 10.0001L56 114C56.0001 119.524 51.5237 124 46 124L10.0001 124C4.47656 124 0.00012207 119.524 0.00012207 114L0 10C0.00012207 4.47638 4.47656 0 10 0L46 0.00012207Z" style="fill:#FFD864;mix-blend-mode:normal;" transform="matrix(0.707 0.707 -0.707 0.707 409 0)" />
    <path id="RlittleFinger" d="M0 4.5C0.00012207 2.01477 3.35779 -0.00012207 7.5 0C11.6422 0 15 2.01465 15.0001 4.50012C15 6.98535 11.6422 9 7.50012 9.00012C3.35791 9 0.00012207 6.98523 0 4.5Z" style="fill:#D2B04A;fill-rule:evenodd;mix-blend-mode:normal;" transform="matrix(0.707 -0.707 0.707 0.707 421 47)" />
    <path id="RcenterFinger" d="M0 6C0 2.6864 4.47717 0.00012207 9.99994 0C15.5228 0.00012207 20 2.6864 20 6.00012C20 9.31372 15.5227 12 10.0001 12C4.47717 12.0001 0 9.31384 0 6Z" style="fill:#D2B04A;fill-rule:evenodd;mix-blend-mode:normal;" transform="matrix(0.707 -0.707 0.707 0.707 407 34)" />
    <path id="RlongFinger" d="M0 9.72925C0 4.48248 9.24463 -1.22192 12.0001 0.229431C14.7554 1.68079 15.4446 2.76733 16.5 9.72919C17.5554 16.691 67.0604 64.2296 58.5 64.2296C49.9395 64.2296 0 14.976 0 9.72925Z" style="fill:#D2B04A;fill-rule:evenodd;mix-blend-mode:normal;" transform="matrix(0 1 -1 0 418 7)" />
    <g style="fill:#FFD864;fill-rule:evenodd;mix-blend-mode:normal;" transform="translate(6 41)">
      <path id="body" d="M220.341 15.278C220.341 15.278 224.157 2.46692 243.209 0.219482C262.262 -2.02789 266.607 13.7228 266.607 13.7228C266.607 13.7228 270.436 9.58203 289.877 5.48816C309.315 1.3941 315.483 23.3903 315.483 23.3903C315.483 23.3903 320.699 16.9287 336.862 16.6381C353.025 16.3474 361.398 40.3734 361.398 40.3734C361.398 40.3734 370.11 36.963 386.458 39.8137C402.807 42.6638 409.167 72.3802 409.167 72.3802C409.167 72.3802 419.367 72.8669 431.547 76.2679C443.728 79.67 431.547 101.088 431.547 101.088C431.547 101.088 435.354 92.8953 455.158 109.724C474.962 126.553 452.807 141.981 452.807 141.981C452.807 141.981 472.948 153.288 479.662 169.226C486.376 185.16 479.662 205.724 479.662 205.724C479.662 205.724 348.338 219.539 231.341 219.539C114.339 219.539 11.6583 205.724 11.6583 205.724C11.6583 205.724 -7.9101 196.023 3.65747 182.225C15.2251 168.428 20.1575 169.226 20.1575 169.226C20.1575 169.226 1.12299 156.599 11.6582 141.981C22.1931 127.366 35.0454 130.337 35.0454 130.337C35.0454 130.337 20.6003 110.102 32.16 103.219C43.7193 96.3367 58.7703 92.1104 58.7703 92.1104C58.7703 92.1104 48.2428 68.9211 60.9962 66.2186C73.7495 63.5162 85.884 63.9987 85.884 63.9987C85.884 63.9987 78.2236 45.0938 94.218 40.6097C110.212 36.1254 128.55 38.6658 128.55 38.6658C128.55 38.6658 117.104 22.0967 143.161 17.2217C169.218 12.3466 168.76 23.0557 168.76 23.0557C168.76 23.0557 173.876 5.44269 193.671 3.30389C213.465 1.1651 220.341 15.278 220.341 15.278Z" />
      <path d="M223.817 9.48798C221.137 12.6057 220.341 15.278 220.341 15.278C220.341 15.278 219.094 12.7195 216.135 9.94623C212.144 6.20624 205.037 2.07574 193.671 3.30389C182.273 4.53546 175.742 10.8976 172.252 16.0735C169.68 19.8865 168.76 23.0557 168.76 23.0557C168.76 23.0557 168.904 19.6874 164.434 17.5888C160.934 15.9454 154.604 15.0807 143.161 17.2217C127.686 20.1168 125.439 27.1362 126.165 32.3603C126.662 35.9329 128.55 38.6658 128.55 38.6658C128.55 38.6658 125.769 38.2805 121.429 38.0749C114.623 37.7524 103.983 37.8716 94.218 40.6097C84.1268 43.4388 83.4517 52.0082 84.3279 57.9485C84.8405 61.4235 85.884 63.9987 85.884 63.9987C85.884 63.9987 83.4103 63.9003 79.5229 64.0411C74.8004 64.2122 67.9913 64.7363 60.9962 66.2186C52.3018 68.061 54.4274 79.4246 56.6611 86.4714C57.7039 89.7614 58.7703 92.1104 58.7703 92.1104C58.7703 92.1104 56.4874 92.7514 53.0168 93.9408C47.5764 95.8053 39.2174 99.0172 32.16 103.219C24.7551 107.628 28.0211 117.516 31.3254 124.054C33.1794 127.723 35.0454 130.337 35.0454 130.337C35.0454 130.337 32.155 129.669 27.9921 130.525C23.3767 131.474 17.1971 134.297 11.6582 141.981C5.05731 151.14 10.0646 159.517 14.725 164.497C17.5029 167.465 20.1575 169.226 20.1575 169.226C20.1575 169.226 18.2216 168.913 13.931 172.071C11.373 173.954 7.97809 177.072 3.65747 182.225C-7.9101 196.023 11.6583 205.724 11.6583 205.724C11.6583 205.724 114.339 219.539 231.341 219.539C348.338 219.539 479.662 205.724 479.662 205.724C479.662 205.724 486.376 185.16 479.662 169.226C475.166 158.552 464.646 149.954 458.188 145.44C455.004 143.214 452.807 141.981 452.807 141.981C452.807 141.981 455.046 140.421 457.464 137.754C462.653 132.03 468.666 121.203 455.158 109.724C447.761 103.439 442.596 100.644 439.028 99.6085C433.759 98.08 431.969 100.388 431.616 100.963C431.984 100.299 433.737 97.0532 435.136 93.1028C437.427 86.638 438.77 78.2853 431.547 76.2679C419.367 72.8669 409.167 72.3802 409.167 72.3802C409.167 72.3802 402.807 42.6638 386.458 39.8137C372.084 37.3073 363.614 39.6409 361.778 40.2411C361.525 40.3236 361.398 40.3734 361.398 40.3734C361.398 40.3734 361.159 39.6885 360.685 38.5513C358.349 32.9535 350.296 16.3964 336.862 16.6381C329.211 16.7756 324.013 18.2958 320.66 19.8589C316.93 21.5981 315.483 23.3903 315.483 23.3903C315.483 23.3903 314.748 20.7692 312.986 17.5049C309.643 11.3131 302.605 2.80737 289.877 5.48816C281.044 7.34808 275.434 9.21771 271.942 10.7043C267.747 12.4899 266.607 13.7228 266.607 13.7228C266.607 13.7228 265.898 11.1516 263.796 8.23511C260.695 3.93323 254.564 -1.11987 243.209 0.219482C232.859 1.44049 227.005 5.77936 223.817 9.48798ZM219.71 5.06952Q218.946 4.40076 218.107 3.74866Q207.807 -4.25842 193.026 -2.66138Q178.181 -1.05737 169.116 10.2233Q168.241 11.312 167.475 12.399Q159.067 8.1416 142.057 11.324Q121.275 15.2122 120.105 29.2741Q119.989 30.6619 120.063 32.0096Q118.792 31.9717 117.45 31.9565Q103.422 31.7976 92.5983 34.8324Q78.2936 38.8427 78.0538 53.8901Q78.0206 55.98 78.2429 58.0031Q69.144 58.3589 59.7523 60.3489Q51.9445 62.0035 49.5465 69.5976Q48.0353 74.3832 49.1848 81.1786Q49.7921 84.7689 50.8823 88.2515Q38.8504 92.2526 29.0905 98.064Q17.5907 104.911 23.6334 121.421Q24.3099 123.27 25.1118 125.045Q14.398 127.919 6.79053 138.473Q-2.26892 151.044 7.01996 164.495Q8.22107 166.234 9.56146 167.79Q4.78278 171.544 -0.940552 178.37Q-6.47998 184.978 -5.9566 192.154Q-5.53967 197.872 -1.29596 202.982Q2.96228 208.11 8.99329 211.1L9.87872 211.539L10.8582 211.671Q36.6736 215.144 77.1116 218.61Q157.959 225.539 231.341 225.539Q304.687 225.539 399.811 218.616Q447.372 215.155 480.29 211.691L484.159 211.284L485.366 207.586Q487.23 201.878 488.139 194.152Q490.002 178.314 485.192 166.897Q480.419 155.567 467.522 144.988Q464.985 142.907 462.578 141.164Q464.995 138.314 466.749 134.899Q475.043 118.749 459.043 105.152Q448.764 96.4174 441.181 94.0099Q441.581 92.7552 441.917 91.4821Q443.626 84.9948 442.533 80.2382Q440.783 72.6179 433.16 70.489Q422.927 67.6313 413.937 66.7228Q412.241 60.757 409.381 54.6282Q400.79 36.2216 387.489 33.9028Q376.409 31.9708 367.097 33.0656Q365.991 33.1956 364.989 33.3523Q362.994 29.1461 360.132 24.9923Q350.077 10.3994 336.754 10.639Q325.841 10.8353 318.191 14.3898Q316.689 11.7108 314.663 9.1662Q304.413 -3.70496 288.641 -0.383057Q276.051 2.26794 269.109 5.28784Q267.929 3.60449 266.402 1.99518Q257.398 -7.49573 242.507 -5.7392Q228.458 -4.08209 220.297 4.44202Q219.997 4.75525 219.71 5.06952Z" fill-rule="evenodd" style="fill:#808080;fill-rule:evenodd;" />
    </g>
    <path id="Oval" d="M0.256958 173.604C-4.10413 122.129 47.8622 29.8487 93.8558 0C103.397 30.799 37.2711 70.9406 37.2504 142.563C37.2296 214.186 66.3932 256.015 48.6293 277.599C30.3994 304.511 4.61829 225.08 0.256958 173.604Z" style="fill:#D2B04A;fill-rule:evenodd;mix-blend-mode:normal;" transform="matrix(0.766 0.643 -0.643 0.766 182 0)" />
    <path id="arch" d="M0.00518799 187.745C1.45911 166.411 19.2135 2.22394 221.382 0.0213623C421.745 -2.16156 453.853 163.708 457.485 188.054C457.729 189.689 456.541 191.021 454.888 191.021L454.687 191.021C453.034 191.021 451.545 189.689 451.305 188.053C447.805 164.237 417.12 5.32526 221.984 11.4398C25.3921 17.5999 6.45825 167.424 4.79315 187.747C4.69037 189.002 3.62177 190.021 2.36292 190.021L2.16113 190.021C0.902283 190.021 -0.0803833 189.001 0.00518799 187.745Z" style="fill:#757575;fill-rule:evenodd;mix-blend-mode:normal;" transform="translate(25 55)" />
    <path id="mouth" d="M0 16.8469C0 10.7651 7.84204 6.10352e-05 35.7326 0C63.623 0 94.693 8.08942 94.693 14.1713C94.693 20.2532 61.3079 13.988 33.4176 13.988C5.52704 13.9881 0 22.9288 0 16.8469Z" style="fill:#484848;fill-rule:evenodd;mix-blend-mode:normal;" transform="matrix(0.998 0.07 -0.07 0.998 195.489 191.003)" />
    <path id="rightEye" d="M0 17.5C0 7.83502 10.0736 0 22.5 0C34.9264 0 45 7.83502 45 17.5C45 27.165 34.9264 35 22.5 35C10.0736 35 0 27.165 0 17.5Z" style="fill:#536DFE;fill-rule:evenodd;mix-blend-mode:normal;" transform="translate(290 132)" />
    <path id="Oval" d="M0 9C0 4.02942 5.37256 0 12 0C18.6274 0 24 4.02942 24 9C24 13.9706 18.6274 18 12 18C5.37256 18 0 13.9706 0 9Z" style="fill:#E8EBFD;fill-rule:evenodd;mix-blend-mode:normal;" transform="translate(295 138)" />
    <path id="leftEye" d="M0 17.5C0 7.83502 10.0736 0 22.5 0C34.9264 0 45 7.83502 45 17.5C45 27.165 34.9264 35 22.5 35C10.0736 35 0 27.165 0 17.5Z" style="fill:#536DFE;fill-rule:evenodd;mix-blend-mode:normal;" transform="translate(150 132)" />
    <path id="Oval" d="M0 9C0 4.02942 5.37256 0 12 0C18.6274 0 24 4.02942 24 9C24 13.9706 18.6274 18 12 18C5.37256 18 0 13.9706 0 9Z" style="fill:#E8EBFD;fill-rule:evenodd;mix-blend-mode:normal;" transform="translate(165 137)" />
  </g>
</svg>