<?xml version="1.0" encoding="utf-8"?>
<svg width="494.807" height="277.739" viewBox="0 0 494.807 277.739" fill="none" stroke="none" version="1.1" xmlns:xlink="http://www.w3.org/1999/xlink" xmlns="http://www.w3.org/2000/svg">
  <g id="SingleElement">
    <g style="fill:#FFD864;fill-rule:evenodd;mix-blend-mode:normal;" transform="translate(6.161 39.606)">
      <path id="body" d="M220.341 15.278C220.341 15.278 224.157 2.46695 243.21 0.219513C262.262 -2.02789 266.607 13.7229 266.607 13.7229C266.607 13.7229 270.436 9.58206 289.877 5.48816C309.316 1.3941 315.483 23.3904 315.483 23.3904C315.483 23.3904 320.699 16.9287 336.862 16.6381C353.025 16.3474 361.398 40.3734 361.398 40.3734C361.398 40.3734 370.11 36.963 386.458 39.8137C402.807 42.6638 409.167 72.3803 409.167 72.3803C409.167 72.3803 419.368 72.867 431.547 76.2679C443.728 79.6701 431.547 101.088 431.547 101.088C431.547 101.088 435.354 92.8954 455.158 109.724C474.962 126.553 452.807 141.981 452.807 141.981C452.807 141.981 472.949 153.288 479.662 169.226C486.376 185.161 479.662 205.724 479.662 205.724C479.662 205.724 360.568 221.583 243.571 221.583C126.57 221.583 11.6583 205.724 11.6583 205.724C11.6583 205.724 -7.9101 196.024 3.65747 182.225C15.2251 168.428 20.1575 169.226 20.1575 169.226C20.1575 169.226 1.12299 156.6 11.6582 141.981C22.1931 127.366 35.0454 130.337 35.0454 130.337C35.0454 130.337 20.6003 110.102 32.16 103.219C43.7193 96.3368 58.7703 92.1105 58.7703 92.1105C58.7703 92.1105 48.2428 68.9212 60.9962 66.2186C73.7495 63.5163 85.884 63.9987 85.884 63.9987C85.884 63.9987 78.2236 45.0938 94.218 40.6097C110.212 36.1254 128.55 38.6658 128.55 38.6658C128.55 38.6658 117.104 22.0968 143.161 17.2217C169.218 12.3466 168.76 23.0557 168.76 23.0557C168.76 23.0557 173.876 5.44266 193.671 3.30389C213.465 1.16513 220.341 15.278 220.341 15.278Z" />
      <path d="M223.817 9.48788C221.137 12.6057 220.341 15.278 220.341 15.278C220.341 15.278 219.094 12.7195 216.135 9.94623C212.144 6.20621 205.037 2.07578 193.671 3.30389C182.273 4.53543 175.742 10.8976 172.252 16.0735C169.681 19.8865 168.76 23.0557 168.76 23.0557C168.76 23.0557 168.904 19.6874 164.434 17.5888C160.934 15.9455 154.604 15.0807 143.161 17.2217C127.686 20.1169 125.439 27.1363 126.165 32.3604C126.662 35.9329 128.55 38.6658 128.55 38.6658C128.55 38.6658 125.769 38.2805 121.429 38.0749C114.623 37.7525 103.984 37.8716 94.218 40.6097C84.1268 43.4388 83.4517 52.0083 84.3279 57.9485C84.8405 61.4235 85.884 63.9987 85.884 63.9987C85.884 63.9987 83.4104 63.9004 79.523 64.0412C74.8004 64.2123 67.9914 64.7364 60.9962 66.2186C52.3018 68.0611 54.4274 79.4248 56.6611 86.4716C57.704 89.7615 58.7703 92.1105 58.7703 92.1105C58.7703 92.1105 56.4874 92.7516 53.0168 93.9409C47.5764 95.8054 39.2174 99.0173 32.16 103.219C24.7551 107.628 28.0211 117.516 31.3254 124.055C33.1794 127.723 35.0454 130.337 35.0454 130.337C35.0454 130.337 32.155 129.669 27.9921 130.525C23.3767 131.474 17.1971 134.297 11.6582 141.981C5.05743 151.14 10.0645 159.517 14.7249 164.497C17.5028 167.465 20.1575 169.226 20.1575 169.226C20.1575 169.226 18.2216 168.913 13.9311 172.072C11.3731 173.955 7.97809 177.072 3.65747 182.225C-7.9101 196.024 11.6583 205.724 11.6583 205.724C11.6583 205.724 126.57 221.583 243.571 221.583C360.568 221.583 479.662 205.724 479.662 205.724C479.662 205.724 486.376 185.161 479.662 169.226C475.166 158.552 464.646 149.955 458.188 145.44C455.004 143.214 452.807 141.981 452.807 141.981C452.807 141.981 455.046 140.422 457.464 137.754C462.653 132.03 468.666 121.203 455.158 109.724C447.761 103.439 442.596 100.644 439.028 99.6086C433.759 98.0802 431.969 100.388 431.616 100.963C431.984 100.299 433.737 97.0533 435.136 93.103C437.427 86.6382 438.77 78.2854 431.547 76.2679C419.368 72.867 409.167 72.3803 409.167 72.3803C409.167 72.3803 402.807 42.6638 386.458 39.8137C372.085 37.3074 363.615 39.6408 361.778 40.2411C361.526 40.3236 361.398 40.3734 361.398 40.3734C361.398 40.3734 361.16 39.688 360.685 38.5503C358.348 32.9514 350.295 16.3965 336.862 16.6381C329.211 16.7757 324.013 18.2959 320.66 19.8591C316.93 21.5982 315.483 23.3904 315.483 23.3904C315.483 23.3904 314.748 20.7693 312.986 17.505C309.644 11.3132 302.605 2.80737 289.877 5.48816C281.044 7.34808 275.435 9.21768 271.942 10.7043C267.747 12.4898 266.607 13.7229 266.607 13.7229C266.607 13.7229 265.898 11.1516 263.796 8.23511C260.695 3.9332 254.564 -1.11987 243.21 0.219513C232.859 1.44049 227.005 5.7793 223.817 9.48788ZM219.71 5.06955Q218.948 4.40286 218.112 3.75256Q207.811 -4.25876 193.027 -2.66138Q178.181 -1.05737 169.116 10.2233Q168.241 11.312 167.475 12.399Q159.067 8.14172 142.057 11.324Q121.276 15.2122 120.105 29.2742Q119.989 30.6619 120.063 32.0096Q118.791 31.9717 117.445 31.9565Q103.42 31.7982 92.5983 34.8325Q78.2934 38.843 78.0538 53.8902Q78.0206 55.9803 78.2429 58.0031Q69.1438 58.359 59.7524 60.349Q51.9446 62.0036 49.5466 69.5977Q48.0354 74.3833 49.1848 81.1787Q49.792 84.7689 50.8823 88.2517Q38.8506 92.2527 29.0905 98.0641Q17.5907 104.911 23.6334 121.421Q24.31 123.27 25.1118 125.045Q14.3981 127.919 6.79053 138.473Q-2.26898 151.044 7.01996 164.495Q8.22113 166.234 9.5614 167.79Q4.78296 171.544 -0.940552 178.371Q-6.47998 184.978 -5.9566 192.155Q-5.53961 197.872 -1.29596 202.982Q2.96222 208.11 8.99329 211.1L9.86938 211.534L10.838 211.668Q39.7004 215.651 83.1926 219.629Q170.169 227.583 243.571 227.583Q316.96 227.584 406.024 219.63Q450.551 215.654 480.454 211.672L484.195 211.174L485.366 207.587Q487.23 201.878 488.139 194.152Q490.003 178.314 485.192 166.897Q480.419 155.568 467.522 144.988Q464.986 142.907 462.578 141.164Q464.992 138.317 466.745 134.906Q475.047 118.752 459.043 105.152Q448.764 96.4174 441.181 94.0101Q441.583 92.7514 441.919 91.473Q443.626 84.9878 442.532 80.2328Q440.78 72.6172 433.16 70.489Q422.927 67.6314 413.937 66.7228Q412.241 60.7573 409.381 54.6282Q400.79 36.2216 387.489 33.9029Q376.409 31.9709 367.097 33.0656Q365.992 33.1955 364.989 33.3524Q362.992 29.1424 360.128 24.9868Q350.074 10.3995 336.754 10.639Q325.841 10.8353 318.191 14.3899Q316.688 11.7078 314.659 9.1615Q304.41 -3.70416 288.641 -0.383087Q276.051 2.26797 269.11 5.28787Q267.931 3.60712 266.407 1.99969Q257.401 -7.49612 242.507 -5.73917Q228.458 -4.08203 220.297 4.44205Q219.997 4.75528 219.71 5.06955ZM431.547 101.088C431.547 101.088 431.571 101.045 431.616 100.963C431.568 101.041 431.547 101.088 431.547 101.088Z" fill-rule="evenodd" style="fill:#808080;fill-rule:evenodd;" />
    </g>
    <path id="rightEye" d="M0 17.5C0 7.83502 10.0736 0 22.5 0C34.9264 0 45 7.83502 45 17.5C45 27.165 34.9264 35 22.5 35C10.0736 35 0 27.165 0 17.5Z" style="fill:#536DFE;fill-rule:evenodd;mix-blend-mode:normal;" transform="translate(289.818 132.329)" />
    <path id="Oval" d="M0.257019 173.604C-4.10419 122.129 47.8621 29.8487 93.8558 0C103.397 30.799 37.2711 70.9406 37.2503 142.563C37.2295 214.186 66.3932 256.015 48.6293 277.599C30.3993 304.511 4.61816 225.08 0.257019 173.604Z" style="fill:#D2B04A;fill-rule:evenodd;mix-blend-mode:normal;" transform="matrix(0.766 0.643 -0.643 0.766 181.921 0)" />
    <path id="leftEye" d="M0 17.5C0 7.83502 10.0736 0 22.5 0C34.9264 0 45 7.83502 45 17.5C45 27.165 34.9264 35 22.5 35C10.0736 35 0 27.165 0 17.5Z" style="fill:#536DFE;fill-rule:evenodd;mix-blend-mode:normal;" transform="translate(149.818 132.329)" />
    <path id="arch" d="M0.00518799 187.745C1.45911 166.411 19.2135 2.22394 221.382 0.0213623C421.745 -2.16156 453.853 163.708 457.485 188.054C457.729 189.689 456.541 191.021 454.888 191.021L454.687 191.021C453.034 191.021 451.545 189.689 451.305 188.053C447.805 164.237 417.12 5.32526 221.984 11.4398C25.3921 17.5999 6.45825 167.424 4.79315 187.747C4.69037 189.002 3.62177 190.021 2.36292 190.021L2.16113 190.021C0.902283 190.021 -0.0803833 189.001 0.00518799 187.745Z" style="fill:#757575;fill-rule:evenodd;mix-blend-mode:normal;" transform="translate(25.318 54.308)" />
    <path id="muth" d="M0 2.00168C0 -4.0802 21.1213 5.63712 49.0116 5.63705C76.9021 5.63705 101 -4.08017 101 2.00165C101 8.0835 78.0646 22.6495 50.1742 22.6495C22.2838 22.6494 0 8.08353 0 2.00168Z" style="fill:#484848;fill-rule:evenodd;mix-blend-mode:normal;" transform="matrix(0.998 0.07 -0.07 0.998 188.873 188.553)" />
    <path id="Oval" d="M0 9C0 4.02945 5.37256 0 12 0C18.6274 0 24 4.02945 24 9C24 13.9706 18.6274 18 12 18C5.37256 18 0 13.9706 0 9Z" style="fill:#E8EBFD;fill-rule:evenodd;mix-blend-mode:normal;" transform="translate(164.818 137.329)" />
    <path id="Oval" d="M0 9C0 4.02945 5.37256 0 12 0C18.6274 0 24 4.02945 24 9C24 13.9706 18.6274 18 12 18C5.37256 18 0 13.9706 0 9Z" style="fill:#E8EBFD;fill-rule:evenodd;mix-blend-mode:normal;" transform="translate(294.818 138.329)" />
  </g>
</svg>