<?xml version="1.0" encoding="utf-8"?>
<svg width="160" height="100" viewBox="0 0 510.787 277.739" fill="none" stroke="none" version="1.1" xmlns:xlink="http://www.w3.org/1999/xlink" xmlns="http://www.w3.org/2000/svg">
  <g id="SingleElement">
    <path id="rightArm" d="M39.9999 6.10352e-05C51.0472 6.10352e-05 59.9999 8.95288 60.0001 20.0001L60.0001 100.134C60.0001 111.181 51.0472 120.134 40.0001 120.134L19.9999 120.134C8.95288 120.134 0 111.181 0 100.134L0 20.0001C6.10352e-05 8.95282 8.95276 6.10352e-05 19.9999 0L39.9999 6.10352e-05Z" style="fill:#FFD864;mix-blend-mode:normal;" transform="matrix(0.695 0.719 -0.719 0.695 469.107 29)" />
    <path id="longFinger" d="M6.12634 4.40906L7.0564 2.99744C10.0642 -1.56726 12.4668 -0.836365 12.4227 4.63025L11.8127 80.2776C11.7869 83.4876 9.16345 86.0899 5.95337 86.0899L5.75439 86.0898C2.54419 86.0899 -0.0319824 83.4876 0.000244141 80.2776L0.580566 22.5724C0.635498 17.106 3.11853 8.97388 6.12634 4.40906Z" style="fill:#D2B04A;fill-rule:evenodd;mix-blend-mode:normal;" transform="matrix(0.695 0.719 -0.719 0.695 467 42)" />
    <path id="fingerRight" d="M4.50012 0C6.98572 0 9 2.01447 9.00012 4.50012L9.00012 14.5C9 16.9857 6.98572 19.0001 4.50012 19.0001L4.50012 19.0001C2.0144 19.0001 0.00012207 16.9857 0.00012207 14.5001L0 4.50012C0.00012207 2.0144 2.01453 0.00012207 4.50012 0Z" style="fill:#D2B04A;mix-blend-mode:normal;" transform="matrix(0.695 0.719 -0.719 0.695 488.456 70)" />
    <g style="fill:#FFD864;fill-rule:evenodd;mix-blend-mode:normal;" transform="translate(6 41)">
      <path id="body" d="M220.341 15.278C220.341 15.278 224.157 2.46695 243.209 0.219513C262.262 -2.02789 266.607 13.7229 266.607 13.7229C266.607 13.7229 270.436 9.58206 289.877 5.48816C309.315 1.3941 315.483 23.3904 315.483 23.3904C315.483 23.3904 320.699 16.9287 336.862 16.6381C353.025 16.3474 361.398 40.3733 361.398 40.3733C361.398 40.3733 370.11 36.963 386.458 39.8137C402.807 42.6638 409.167 72.3802 409.167 72.3802C409.167 72.3802 419.367 72.8669 431.547 76.2679C443.728 79.67 431.547 101.087 431.547 101.087C431.547 101.087 435.354 92.8953 455.158 109.724C474.962 126.553 452.807 141.981 452.807 141.981C452.807 141.981 472.948 153.288 479.662 169.226C486.376 185.16 479.662 205.724 479.662 205.724C479.662 205.724 359.887 197.725 242.889 197.725C125.888 197.725 11.6582 205.724 11.6582 205.724C11.6582 205.724 -7.9101 196.023 3.65747 182.225C15.2251 168.428 20.1575 169.226 20.1575 169.226C20.1575 169.226 1.12299 156.599 11.6582 141.981C22.1931 127.366 35.0454 130.337 35.0454 130.337C35.0454 130.337 20.6003 110.102 32.16 103.219C43.7193 96.3366 58.7703 92.1104 58.7703 92.1104C58.7703 92.1104 48.2428 68.9212 60.9962 66.2186C73.7495 63.5163 85.884 63.9987 85.884 63.9987C85.884 63.9987 78.2236 45.0938 94.218 40.6097C110.212 36.1254 128.55 38.6658 128.55 38.6658C128.55 38.6658 117.104 22.0967 143.161 17.2217C169.218 12.3466 168.76 23.0557 168.76 23.0557C168.76 23.0557 173.876 5.44266 193.671 3.30389C213.465 1.16513 220.341 15.278 220.341 15.278Z" />
      <path d="M223.817 9.48798C221.137 12.6057 220.341 15.278 220.341 15.278C220.341 15.278 219.094 12.7195 216.135 9.94623C212.144 6.20624 205.037 2.07578 193.671 3.30389C182.273 4.53543 175.742 10.8976 172.252 16.0735C169.68 19.8865 168.76 23.0557 168.76 23.0557C168.76 23.0557 168.904 19.6874 164.434 17.5888C160.934 15.9455 154.604 15.0807 143.161 17.2217C127.686 20.1169 125.439 27.1363 126.165 32.3603C126.662 35.9329 128.55 38.6658 128.55 38.6658C128.55 38.6658 125.769 38.2805 121.429 38.0749C114.623 37.7525 103.983 37.8716 94.218 40.6097C84.1268 43.4388 83.4517 52.0082 84.3279 57.9485C84.8405 61.4234 85.884 63.9987 85.884 63.9987C85.884 63.9987 83.4103 63.9003 79.5229 64.0412C74.8004 64.2123 67.9913 64.7364 60.9962 66.2186C52.3018 68.061 54.4274 79.4247 56.6611 86.4715C57.7039 89.7614 58.7703 92.1104 58.7703 92.1104C58.7703 92.1104 56.4873 92.7514 53.0168 93.9408C47.5763 95.8053 39.2173 99.0172 32.16 103.219C24.7551 107.628 28.0211 117.516 31.3254 124.054C33.1794 127.723 35.0454 130.337 35.0454 130.337C35.0454 130.337 32.155 129.669 27.992 130.525C23.3766 131.474 17.1971 134.297 11.6582 141.981C5.05743 151.14 10.0645 159.517 14.7249 164.497C17.5028 167.465 20.1575 169.226 20.1575 169.226C20.1575 169.226 18.2216 168.913 13.9311 172.071C11.3731 173.954 7.97809 177.072 3.65747 182.225C-7.9101 196.023 11.6582 205.724 11.6582 205.724C11.6582 205.724 125.888 197.725 242.889 197.725C359.887 197.725 479.662 205.724 479.662 205.724C479.662 205.724 486.376 185.16 479.662 169.226C475.166 158.552 464.646 149.954 458.188 145.44C455.003 143.214 452.807 141.981 452.807 141.981C452.807 141.981 455.046 140.421 457.464 137.754C462.653 132.03 468.666 121.203 455.158 109.724C447.761 103.439 442.596 100.644 439.028 99.6085C433.759 98.08 431.969 100.388 431.616 100.963C431.984 100.299 433.737 97.0531 435.136 93.1028C437.427 86.638 438.77 78.2854 431.547 76.2679C419.367 72.8669 409.167 72.3802 409.167 72.3802C409.167 72.3802 402.807 42.6638 386.458 39.8137C372.084 37.3073 363.614 39.6409 361.778 40.2411C361.525 40.3236 361.398 40.3733 361.398 40.3733C361.398 40.3733 361.159 39.6883 360.685 38.551C358.348 32.9529 350.296 16.3965 336.862 16.6381C329.211 16.7756 324.013 18.2959 320.66 19.859C316.93 21.5981 315.483 23.3904 315.483 23.3904C315.483 23.3904 314.748 20.7692 312.986 17.5049C309.644 11.3131 302.605 2.80737 289.877 5.48816C281.044 7.34808 275.435 9.21768 271.942 10.7043C267.747 12.4898 266.607 13.7229 266.607 13.7229C266.607 13.7229 265.898 11.1516 263.796 8.23511C260.695 3.9332 254.564 -1.11987 243.209 0.219513C232.859 1.44049 227.005 5.77936 223.817 9.48798ZM219.71 5.06955Q218.946 4.40085 218.107 3.74866Q207.806 -4.2583 193.026 -2.66138Q178.181 -1.05734 169.115 10.2233Q168.241 11.312 167.475 12.399Q159.067 8.14169 142.057 11.324Q121.275 15.2122 120.105 29.2741Q119.989 30.6619 120.063 32.0096Q118.793 31.9717 117.45 31.9565Q103.422 31.7976 92.5983 34.8324Q78.2936 38.8428 78.0538 53.8901Q78.0206 55.9799 78.2429 58.003Q69.1439 58.3589 59.7523 60.3489Q51.9446 62.0035 49.5465 69.5977Q48.0353 74.3833 49.1848 81.1786Q49.7921 84.7689 50.8823 88.2516Q38.8503 92.2527 29.0905 98.064Q17.5907 104.911 23.6334 121.421Q24.31 123.27 25.1117 125.045Q14.3981 127.919 6.79053 138.473Q-2.26892 151.044 7.01996 164.495Q8.22107 166.234 9.5614 167.789Q4.7829 171.544 -0.940552 178.37Q-6.47998 184.978 -5.9566 192.154Q-5.53967 197.872 -1.29602 202.982Q2.9621 208.11 8.99323 211.1L10.4525 211.823L12.0773 211.71Q40.562 209.715 83.6758 207.718Q169.902 203.726 242.889 203.725Q315.882 203.725 404.881 207.719Q449.38 209.715 479.262 211.711L483.918 212.022L485.366 207.586Q487.23 201.878 488.139 194.152Q490.002 178.314 485.192 166.897Q480.419 155.568 467.522 144.988Q464.985 142.907 462.577 141.163Q464.996 138.312 466.75 134.896Q475.042 118.747 459.043 105.152Q448.764 96.4174 441.181 94.0099Q441.582 92.7525 441.918 91.4756Q443.626 84.9898 442.532 80.2343Q440.781 72.6174 433.16 70.489Q422.927 67.6313 413.937 66.7227Q412.239 60.7502 409.376 54.619Q400.786 36.221 387.489 33.9028Q376.409 31.9709 367.097 33.0656Q365.991 33.1955 364.989 33.3523Q362.994 29.146 360.132 24.9924Q350.077 10.3994 336.754 10.639Q325.841 10.8353 318.191 14.3898Q316.69 11.7109 314.663 9.1662Q304.413 -3.70493 288.64 -0.383087Q276.051 2.26797 269.109 5.28787Q267.931 3.60699 266.407 1.99969Q257.401 -7.49612 242.507 -5.73917Q228.458 -4.08203 220.297 4.44202Q219.996 4.75604 219.71 5.06955Z" fill-rule="evenodd" style="fill:#808080;fill-rule:evenodd;" />
    </g>
    <path id="fingerCenter" d="M4.50012 0C6.98572 0 9 2.0144 9.00012 4.5L9.00012 10.5001C9.00012 12.9856 6.98572 15 4.5 15L4.5 15C2.01453 15 0.00012207 12.9856 0 10.5L0 4.50006C0.00012207 2.01434 2.0144 0 4.50012 0Z" style="fill:#D2B04A;mix-blend-mode:normal;" transform="matrix(0.695 0.719 -0.719 0.695 481.456 54)" />
    <path id="rightEye" d="M0 17.5C0 7.83502 10.0736 0 22.5 0C34.9264 0 45 7.83502 45 17.5C45 27.165 34.9264 35 22.5 35C10.0736 35 0 27.165 0 17.5Z" style="fill:#536DFE;fill-rule:evenodd;mix-blend-mode:normal;" transform="translate(290 132)" />
    <path id="Oval" d="M0.256958 173.604C-4.10425 122.129 47.8621 29.8487 93.8558 0C103.397 30.799 37.2711 70.9406 37.2503 142.563C37.2295 214.186 66.3932 256.015 48.6292 277.599C30.3993 304.511 4.6181 225.08 0.256958 173.604Z" style="fill:#D2B04A;fill-rule:evenodd;mix-blend-mode:normal;" transform="matrix(0.766 0.643 -0.643 0.766 182 0)" />
    <path id="leftEye" d="M0 17.5C0 7.83502 10.0736 0 22.5 0C34.9264 0 45 7.83502 45 17.5C45 27.165 34.9264 35 22.5 35C10.0736 35 0 27.165 0 17.5Z" style="fill:#536DFE;fill-rule:evenodd;mix-blend-mode:normal;" transform="translate(150 132)" />
    <path id="arch" d="M0.00518799 187.745C1.45911 166.411 19.2135 2.22394 221.382 0.0213623C421.745 -2.16156 453.853 163.708 457.485 188.054C457.729 189.689 456.541 191.021 454.888 191.021L454.687 191.021C453.034 191.021 451.545 189.689 451.305 188.053C447.805 164.237 417.12 5.32526 221.984 11.4398C25.3921 17.5999 6.45825 167.424 4.79315 187.747C4.69037 189.002 3.62177 190.021 2.36292 190.021L2.16113 190.021C0.902283 190.021 -0.0803833 189.001 0.00518799 187.745Z" style="fill:#757575;fill-rule:evenodd;mix-blend-mode:normal;" transform="translate(25 55)" />
    <path id="muth" d="M0 21.5042C0 15.4223 6.64032 -3.05176e-05 34.5308 0C62.4213 -3.05176e-05 89.4421 16.2306 89.4421 22.3124C89.4421 28.3943 70.9446 18.4935 43.0543 18.4935C15.1638 18.4935 0 27.5861 0 21.5042Z" style="fill:#484848;fill-rule:evenodd;mix-blend-mode:normal;" transform="matrix(0.998 0.07 -0.07 0.998 195.813 186.584)" />
    <path id="Oval" d="M0 9C0 4.02945 5.37256 0 12 0C18.6274 0 24 4.02945 24 9C24 13.9706 18.6274 18 12 18C5.37256 18 0 13.9706 0 9Z" style="fill:#E8EBFD;fill-rule:evenodd;mix-blend-mode:normal;" transform="translate(165 137)" />
    <path id="Oval" d="M0 9C0 4.02945 5.37256 0 12 0C18.6274 0 24 4.02945 24 9C24 13.9706 18.6274 18 12 18C5.37256 18 0 13.9706 0 9Z" style="fill:#E8EBFD;fill-rule:evenodd;mix-blend-mode:normal;" transform="translate(295 138)" />
  </g>
</svg>