<?xml version="1.0" encoding="utf-8"?>
<svg width="170" height="120" viewBox="0 0 494.646 277.739" fill="none" stroke="none" version="1.1" xmlns:xlink="http://www.w3.org/1999/xlink" xmlns="http://www.w3.org/2000/svg">
  <g id="SingleElement">
    <g style="fill:#FFD864;fill-rule:evenodd;mix-blend-mode:normal;" transform="translate(6 41)">
      <path id="body" d="M220.341 15.278C220.341 15.278 224.157 2.46695 243.209 0.219513C262.262 -2.02789 266.607 13.7229 266.607 13.7229C266.607 13.7229 270.436 9.58206 289.877 5.48816C309.315 1.3941 315.483 23.3904 315.483 23.3904C315.483 23.3904 320.699 16.9287 336.862 16.6381C353.025 16.3474 361.398 40.3733 361.398 40.3733C361.398 40.3733 370.11 36.963 386.458 39.8137C402.807 42.6638 409.167 72.3802 409.167 72.3802C409.167 72.3802 419.367 72.8669 431.547 76.2679C443.728 79.67 431.547 101.087 431.547 101.087C431.547 101.087 435.354 92.8953 455.158 109.724C474.962 126.553 452.807 141.981 452.807 141.981C452.807 141.981 472.948 153.288 479.662 169.226C486.376 185.16 479.662 205.724 479.662 205.724C479.662 205.724 348.338 219.539 231.341 219.539C114.339 219.539 11.6582 205.724 11.6582 205.724C11.6582 205.724 -7.9101 196.023 3.65747 182.225C15.2251 168.428 20.1575 169.226 20.1575 169.226C20.1575 169.226 1.12299 156.599 11.6582 141.981C22.1931 127.366 35.0454 130.337 35.0454 130.337C35.0454 130.337 20.6003 110.102 32.16 103.219C43.7192 96.3366 58.7703 92.1104 58.7703 92.1104C58.7703 92.1104 48.2428 68.9211 60.9962 66.2186C73.7494 63.5163 85.8839 63.9987 85.8839 63.9987C85.8839 63.9987 78.2236 45.0938 94.218 40.6097C110.212 36.1254 128.55 38.6658 128.55 38.6658C128.55 38.6658 117.104 22.0967 143.161 17.2217C169.218 12.3466 168.76 23.0557 168.76 23.0557C168.76 23.0557 173.876 5.44266 193.671 3.30389C213.465 1.16513 220.341 15.278 220.341 15.278Z" />
      <path d="M223.817 9.48798C221.137 12.6057 220.341 15.278 220.341 15.278C220.341 15.278 219.094 12.7195 216.135 9.94623C212.144 6.20624 205.037 2.07578 193.671 3.30389C182.273 4.53543 175.742 10.8976 172.252 16.0735C169.68 19.8865 168.76 23.0557 168.76 23.0557C168.76 23.0557 168.904 19.6874 164.434 17.5888C160.934 15.9455 154.604 15.0807 143.161 17.2217C127.686 20.1169 125.439 27.1362 126.165 32.3603C126.662 35.9329 128.55 38.6658 128.55 38.6658C128.55 38.6658 125.769 38.2805 121.429 38.0749C114.623 37.7525 103.983 37.8716 94.218 40.6097C84.1268 43.4388 83.4516 52.0082 84.3278 57.9485C84.8404 61.4234 85.8839 63.9987 85.8839 63.9987C85.8839 63.9987 83.4103 63.9003 79.5229 64.0412C74.8004 64.2123 67.9913 64.7364 60.9962 66.2186C52.3018 68.061 54.4274 79.4247 56.6611 86.4715C57.7039 89.7614 58.7703 92.1104 58.7703 92.1104C58.7703 92.1104 56.4873 92.7514 53.0168 93.9408C47.5762 95.8053 39.2173 99.0172 32.16 103.219C24.7551 107.628 28.0211 117.516 31.3254 124.054C33.1794 127.723 35.0454 130.337 35.0454 130.337C35.0454 130.337 32.155 129.669 27.992 130.525C23.3766 131.474 17.1971 134.297 11.6582 141.981C5.05737 151.14 10.0646 159.517 14.725 164.497C17.5029 167.465 20.1575 169.226 20.1575 169.226C20.1575 169.226 18.2216 168.913 13.931 172.071C11.373 173.954 7.97809 177.072 3.65747 182.225C-7.9101 196.023 11.6582 205.724 11.6582 205.724C11.6582 205.724 114.339 219.539 231.341 219.539C348.338 219.539 479.662 205.724 479.662 205.724C479.662 205.724 486.376 185.16 479.662 169.226C475.166 158.552 464.646 149.954 458.188 145.44C455.003 143.214 452.807 141.981 452.807 141.981C452.807 141.981 455.046 140.421 457.464 137.754C462.653 132.03 468.666 121.203 455.158 109.724C447.761 103.439 442.596 100.644 439.028 99.6086C433.759 98.08 431.969 100.388 431.616 100.963C431.984 100.299 433.737 97.0532 435.136 93.1029C437.427 86.6381 438.77 78.2853 431.547 76.2679C419.367 72.8669 409.167 72.3802 409.167 72.3802C409.167 72.3802 402.807 42.6638 386.458 39.8137C372.084 37.3073 363.614 39.6409 361.778 40.2411C361.525 40.3236 361.398 40.3733 361.398 40.3733C361.398 40.3733 361.159 39.6884 360.685 38.5514C358.349 32.9536 350.296 16.3965 336.862 16.6381C329.211 16.7756 324.013 18.2959 320.66 19.859C316.93 21.5981 315.483 23.3904 315.483 23.3904C315.483 23.3904 314.748 20.7692 312.986 17.5049C309.643 11.3131 302.605 2.80737 289.877 5.48816C281.044 7.34808 275.435 9.21768 271.942 10.7043C267.747 12.4898 266.607 13.7229 266.607 13.7229C266.607 13.7229 265.898 11.1516 263.796 8.23511C260.695 3.9332 254.564 -1.11987 243.209 0.219513C232.859 1.44049 227.005 5.77936 223.817 9.48798ZM219.71 5.06955Q218.946 4.40085 218.107 3.74866Q207.806 -4.2583 193.026 -2.66138Q178.181 -1.05734 169.115 10.2233Q168.24 11.3122 167.475 12.399Q159.067 8.14169 142.057 11.324Q121.275 15.2121 120.105 29.2742Q119.989 30.6619 120.063 32.0096Q118.794 31.9717 117.45 31.9565Q103.422 31.7977 92.5983 34.8324Q78.2935 38.8428 78.0538 53.8901Q78.0205 55.9799 78.2428 58.0031Q69.1438 58.3589 59.7523 60.3489Q51.9446 62.0034 49.5465 69.5976Q48.0353 74.3832 49.1848 81.1786Q49.7921 84.7689 50.8823 88.2516Q38.8504 92.2526 29.0905 98.064Q17.5907 104.911 23.6334 121.421Q24.31 123.27 25.1117 125.045Q14.3979 127.919 6.79053 138.473Q-2.2688 151.044 7.01996 164.495Q8.22101 166.234 9.56146 167.79Q4.78278 171.544 -0.940552 178.37Q-6.47998 184.978 -5.9566 192.154Q-5.53961 197.872 -1.29602 202.982Q2.96222 208.11 8.99323 211.1L9.87866 211.539L10.8582 211.671L10.8611 211.671Q36.9353 215.171 77.3495 218.63Q158.075 225.54 231.341 225.539Q304.687 225.539 399.811 218.616Q447.37 215.155 480.29 211.691L484.159 211.284L485.366 207.586Q487.231 201.871 488.14 194.146Q490.001 178.312 485.192 166.897Q480.419 155.568 467.522 144.988Q464.985 142.907 462.577 141.163Q464.996 138.312 466.75 134.896Q475.042 118.747 459.043 105.152Q448.764 96.4174 441.181 94.01Q441.582 92.7527 441.918 91.4756Q443.626 84.9898 442.532 80.2343Q440.781 72.6174 433.16 70.489Q422.927 67.6313 413.937 66.7227Q412.241 60.7574 409.381 54.6282Q400.79 36.2216 387.489 33.9028Q376.409 31.9709 367.097 33.0656Q365.992 33.1955 364.989 33.3523Q362.994 29.146 360.132 24.9924Q350.077 10.3994 336.754 10.639Q325.841 10.8353 318.191 14.3899Q316.689 11.7109 314.663 9.1662Q304.413 -3.70493 288.64 -0.383087Q276.051 2.26797 269.109 5.28787Q267.931 3.60699 266.407 1.99969Q257.401 -7.49612 242.507 -5.73917Q228.458 -4.08203 220.297 4.44202Q219.996 4.75604 219.71 5.06955Z" fill-rule="evenodd" style="fill:#808080;fill-rule:evenodd;" />
    </g>
    <path id="Oval" d="M0.256958 173.604C-4.10425 122.129 47.8621 29.8487 93.8558 0C103.397 30.799 37.2711 70.9406 37.2503 142.563C37.2295 214.186 66.3932 256.015 48.6292 277.599C30.3993 304.511 4.6181 225.08 0.256958 173.604Z" style="fill:#D2B04A;fill-rule:evenodd;mix-blend-mode:normal;" transform="matrix(0.766 0.643 -0.643 0.766 182 0)" />
    <path id="arch" d="M0.00518799 187.745C1.45911 166.411 19.2135 2.22394 221.382 0.0213623C421.745 -2.16156 453.853 163.708 457.485 188.054C457.729 189.689 456.541 191.021 454.888 191.021L454.687 191.021C453.034 191.021 451.545 189.689 451.305 188.053C447.805 164.237 417.12 5.32526 221.984 11.4398C25.3921 17.5999 6.45825 167.424 4.79315 187.747C4.69037 189.002 3.62177 190.021 2.36292 190.021L2.16113 190.021C0.902283 190.021 -0.0803833 189.001 0.00518799 187.745Z" style="fill:#757575;fill-rule:evenodd;mix-blend-mode:normal;" transform="translate(25 55)" />
    <path id="muth" d="M0 9.8327C0 3.75082 6.28662 10.8637 34.1771 10.8637C62.0676 10.8637 92.6557 -4.66983 92.6557 1.41205C92.6558 7.49387 62.2841 20.9339 34.3937 20.9339C6.50323 20.9339 0 15.9146 0 9.8327Z" style="fill:#484848;fill-rule:evenodd;mix-blend-mode:normal;" transform="matrix(0.998 0.07 -0.07 0.998 194.999 198.227)" />
    <g style="fill:#FFD864;fill-rule:evenodd;mix-blend-mode:normal;" transform="translate(60 101.714)">
      <path id="sunglass" d="M19.3243 13.2087C27.1431 7.23959 43.9911 -0.049408 79.3958 0.719238C138.5 2.00241 151.971 34.3948 151.971 34.3948L170.168 34.7075C170.168 34.7075 175.637 4.56479 228.146 0.719238C264.611 -1.95126 293.067 3.41898 307.052 6.95013C312.352 8.28845 317.25 14.0788 318.104 19.4783L326.869 74.8674C327.723 80.267 324.148 85.8452 318.818 87.0599C302.519 90.7742 267.541 97.1211 230.159 93.7304C178.758 89.0682 168.184 60.8625 168.184 60.8625L154.571 60.7946C154.571 60.7946 146.841 98.0025 76.1877 99.2858C35.0696 100.033 15.3785 95.1685 6.10089 90.9713C1.12012 88.7179 -0.86853 80.9651 0.347534 75.6353L10.7004 30.259C11.9165 24.9292 14.979 16.5259 19.3243 13.2087Z" />
      <path d="M153.825 34.3948C153.825 34.3948 140.354 2.00241 81.2501 0.719238C45.8454 -0.049408 28.9974 7.23959 21.1786 13.2087C16.8333 16.5259 13.7708 24.9292 12.5547 30.259L2.20184 75.6353C0.985779 80.9651 2.97443 88.7179 7.9552 90.9713C17.2328 95.1685 36.9239 100.033 78.0421 99.2858C148.695 98.0025 156.425 60.7946 156.425 60.7946L170.038 60.8625C170.038 60.8625 180.612 89.0682 232.014 93.7304C269.396 97.1211 304.373 90.7742 320.672 87.0599C326.002 85.8452 329.578 80.267 328.723 74.8674L319.959 19.4783C319.104 14.0788 314.206 8.28845 308.906 6.95013C294.921 3.41898 266.465 -1.95126 230 0.719238C177.491 4.56479 172.022 34.7075 172.022 34.7075L153.825 34.3948ZM22.3042 32.4834Q24.3911 23.3372 27.2466 21.1572Q42.0314 9.87018 81.033 10.7169Q114.692 11.4476 133.605 25.9645Q139.15 30.2206 142.659 35.1256Q144.185 37.2577 144.592 38.2346L144.592 38.2358L147.106 44.2808L180.345 44.852L181.862 36.4928Q181.976 35.8612 182.775 34.1313Q184.706 29.9519 188.429 26.1885Q201.653 12.8221 230.731 10.6925Q271.154 7.73209 306.458 16.6458Q307.35 16.8712 308.558 18.258Q309.882 19.7783 310.082 21.0412L318.846 76.4303Q318.967 77.1922 318.45 77.3098Q273.818 87.4812 232.917 83.7713Q203.923 81.1414 188.191 67.8979Q183.63 64.0584 180.838 59.8316Q179.666 58.0572 179.402 57.3521L176.982 50.8971L148.297 50.7539L146.634 58.7605Q146.433 59.728 145.246 62.0063Q142.451 67.367 137.126 72.0484Q118.352 88.5519 77.8605 89.2875Q31.0468 90.1377 12.5819 82.0846Q12.4046 81.7808 12.2359 81.2778Q11.6025 79.3886 11.9513 77.8598L22.3042 32.4834Z" fill-rule="evenodd" style="fill:#000000;fill-rule:evenodd;" />
    </g>
    <path id="rightEye" d="M0 26C0 11.6406 10.0736 0 22.5 0C34.9264 0 45 11.6406 45 26C45 40.3594 34.9264 52 22.5 52C10.0736 52 0 40.3594 0 26Z" style="fill:#536DFE;fill-rule:evenodd;mix-blend-mode:normal;" transform="translate(289.818 115.329)" />
    <path id="Oval" d="M0 9C0 4.02945 5.37256 0 12 0C18.6274 0 24 4.02945 24 9C24 13.9706 18.6274 18 12 18C5.37256 18 0 13.9706 0 9Z" style="fill:#E8EBFD;fill-rule:evenodd;mix-blend-mode:normal;" transform="translate(295 138)" />
    <path id="leftEye" d="M0 26C0 11.6406 10.969 0 24.5 0C38.031 0 49 11.6406 49 26C49 40.3594 38.031 52 24.5 52C10.969 52 0 40.3594 0 26Z" style="fill:#536DFE;fill-rule:evenodd;mix-blend-mode:normal;" transform="translate(149.818 115.329)" />
    <path id="Oval" d="M0 9C0 4.02945 5.37256 0 12 0C18.6274 0 24 4.02945 24 9C24 13.9706 18.6274 18 12 18C5.37256 18 0 13.9706 0 9Z" style="fill:#E8EBFD;fill-rule:evenodd;mix-blend-mode:normal;" transform="translate(165 137)" />
  </g>
</svg>