<?xml version="1.0" encoding="utf-8"?>
<svg width="60" height="60" viewBox="0 0 230 230" fill="none" stroke="none" version="1.1" xmlns:xlink="http://www.w3.org/1999/xlink" xmlns="http://www.w3.org/2000/svg">
  <g id="SingleElement">
    <path id="OvalContainer" d="M0 115C0 51.4873 51.4872 0 115 0C178.513 0 230 51.4873 230 115C230 178.513 178.513 230 115 230C51.4872 230 0 178.513 0 115Z" style="fill:#0F0843;fill-rule:evenodd;mix-blend-mode:normal;" />
    <path id="Star" d="M92.3817 1.93103L105.62 42.9718C106.451 45.5465 108.981 46.4677 111.272 45.0292L147.794 22.0996C150.085 20.661 151.117 21.5266 150.098 24.0328L133.859 63.9813C132.84 66.4875 134.187 68.8197 136.866 69.1906L179.582 75.1012C182.262 75.472 182.496 76.7981 180.105 78.0631L141.986 98.2271C139.595 99.4919 139.127 102.144 140.942 104.151L169.865 136.136C171.679 138.142 171.006 139.309 168.361 138.74L126.2 129.685C123.555 129.117 121.492 130.848 121.592 133.551L123.188 176.645C123.289 179.348 122.023 179.809 120.362 177.674L93.8855 143.636C92.2245 141.5 89.5314 141.5 87.8704 143.636L61.3936 177.673C59.7325 179.809 58.4672 179.348 58.5674 176.645L60.1641 133.551C60.2643 130.848 58.2013 129.117 55.5563 129.685L13.3947 138.74C10.7497 139.309 10.0765 138.142 11.8909 136.136L40.8141 104.151C42.6286 102.144 42.161 99.4919 39.7696 98.2271L1.65112 78.063C-0.740234 76.798 -0.506409 75.4719 2.1734 75.1012L44.8895 69.1906C47.5693 68.8197 48.9158 66.4875 47.8971 63.9813L31.6578 24.0327C30.639 21.5266 31.6705 20.661 33.9617 22.0996L70.4834 45.0292C72.7746 46.4677 75.3052 45.5465 76.1357 42.9718L89.3741 1.93103C90.2047 -0.643677 91.5512 -0.643677 92.3817 1.93103Z" style="fill:#EACA02;fill-rule:evenodd;mix-blend-mode:normal;" transform="translate(24 22)" />
    <path id="OvalSun" d="M0 80C0 35.8173 35.8172 0 80 0C124.183 0 160 35.8173 160 80C160 124.183 124.183 160 80 160C35.8172 160 0 124.183 0 80Z" style="fill:#EACA02;fill-rule:evenodd;mix-blend-mode:normal;" transform="translate(35 35)" />
  </g>
</svg>